<svg xmlns="http://www.w3.org/2000/svg" viewBox="0 0 2964.22 626.26"><defs><style>.cls-1{fill:#208a6f;}.cls-2{fill:#0085ce;}</style></defs><g id="&#x30EC;&#x30A4;&#x30E4;&#x30FC;_2" data-name="&#x30EC;&#x30A4;&#x30E4;&#x30FC; 2"><g id="_&#x30A4;&#x30E4;&#x30FC;_2" data-name=" &#x30A4;&#x30E4;&#x30FC; 2"><g id="Note-2"><path class="cls-1" d="M984,611.48H801.06a14.28,14.28,0,0,1-14.26-14.27V536.53c-11-5.27-43.9-16.53-122.94-16.53s-129.12,9.29-150,30.1a14.27,14.27,0,0,1-20.16,0c-11-11-48.61-16.86-78.53-18.33v65.41a14.28,14.28,0,0,1-14.27,14.26H.84V583H386.7V517.18A14.29,14.29,0,0,1,401,502.91c12.66,0,71,1,102.2,19,28.82-21.22,78.24-30.44,160.72-30.44,114.42,0,142.77,22.54,147.27,27a14.25,14.25,0,0,1,4.17,10.09v54.32H984v28.57Z"></path><path class="cls-2" d="M984,384c-6.44,0-66.39-3.33-181.57-118.52-39.91-39.87-66.83-89.87-90.61-133.94-31-57.58-55.52-103-93.64-103-35.26,0-60.28,39.94-92,90.57C497.9,164.31,462.68,220.53,408.4,264,280.08,366.59,13,383.3,1.68,384L0,355.5c2.67-.14,269.36-16.86,390.58-113.83,50.52-40.42,82.89-92.1,111.46-137.75C537,48.17,567.11,0,618.17,0,673.3,0,702.78,54.68,736.9,118c22.87,42.36,48.73,90.39,85.67,127.33C929.27,352,983.73,355.47,984.28,355.47L984,384Z"></path><path class="cls-2" d="M984,460.45c-40.56,0-160.83-89.66-184.5-107.65-23.15-17.56-43-34.79-60.57-50-44.08-38.22-75.94-65.87-121.15-65.87-54,0-96.49,32.11-145.73,69.28-16.42,12.4-33.43,25.24-51.68,37.49C336.67,399.87,152.46,460.45.84,460.45V432c146.28,0,323.39-58.08,403.61-111.89,17.63-11.82,34.31-24.4,50.4-36.58,51.1-38.59,99.38-75,162.92-75,55.82,0,92.87,32.15,139.8,72.83,17.19,14.92,36.69,31.82,59.11,48.83C909.3,400.38,970.24,432,984,432v28.5Z"></path><path class="cls-2" d="M984,535.8c-2.85,0-71.25-1.21-181.35-106.85-59-56.66-121.77-39.43-182.42-22.75-28.64,7.87-55.67,15.29-82.08,15.29-34.09,0-52.09-9.11-65.18-15.76-15.29-7.76-20.45-10.39-58.13,23.55C297.78,534.59,12.91,535.8.84,535.8V507.3c2.85,0,286-1.2,394.94-99.23,47.47-42.73,63.17-41.41,90.09-27.77,11.74,5.93,25,12.7,52.31,12.7,22.56,0,47.8-6.95,74.54-14.31,65.15-17.88,139-38.18,209.7,29.71,100.41,96.34,161.17,98.9,161.79,98.9L984,535.8Z"></path><path class="cls-2" d="M2335.12,612.25V607l6.8-6.59c16.31-15.58,23.78-23.88,23.81-33.5,0-6.51-3.07-12.51-12.62-12.51-5.85,0-10.64,3-13.6,5.41l-2.75-6.07a28.26,28.26,0,0,1,18.11-6.51c13.75,0,19.53,9.44,19.53,18.55,0,11.88-8.56,21.43-22,34.34l-5.05,4.79v.19H2376v7.17h-40.89Z"></path><path class="cls-2" d="M2430.62,579.62c0,21.69-8.12,33.72-22.24,33.72-12.47,0-21-11.7-21.18-32.81,0-21.51,9.29-33.28,22.28-33.28s21.18,12,21.18,32.4Zm-34.71.91c0,16.68,5.12,26.08,13,26.08,8.82,0,13.06-10.31,13.06-26.59s-4-26.08-13-26.08c-7.54,0-13.06,9.25-13,26.59Z"></path><path class="cls-2" d="M2468.74,572.12v6.33h-24.29v-6.33Z"></path><path class="cls-2" d="M2478.54,612.25V607l6.8-6.59c16.32-15.58,23.78-23.88,23.81-33.5,0-6.51-3.07-12.51-12.61-12.51-5.86,0-10.65,3-13.61,5.41l-2.74-6.07a28.21,28.21,0,0,1,18.1-6.51c13.75,0,19.53,9.44,19.53,18.55,0,11.88-8.56,21.43-22,34.34l-5,4.79v.19h28.67v7.17h-40.89Z"></path><path class="cls-2" d="M2533.55,602.37a29.24,29.24,0,0,0,14.2,4c11,0,14.52-7,14.48-12.4-.11-9-8.23-12.8-16.53-12.8h-4.83v-6.51h4.83c6.29,0,14.26-3.26,14.26-10.79,0-5.16-3.25-9.66-11.23-9.66a23.34,23.34,0,0,0-12.76,4.21l-2.31-6.26c3.37-2.49,9.88-4.94,16.72-4.94,12.66,0,18.4,7.47,18.4,15.29,0,6.62-4,12.22-11.82,15.07v.19c7.87,1.5,14.23,7.46,14.23,16.38,0,10.21-8,19.21-23.33,19.21-7.17,0-13.47-2.23-16.57-4.39l2.3-6.59Z"></path><path class="cls-2" d="M2621.52,591.4l-6.87,20.85h-8.89l22.57-66.32h10.28l22.64,66.32h-9.15L2645,591.4h-23.49Zm21.77-6.7-6.55-19.09c-1.43-4.35-2.45-8.3-3.4-12.11h-.22c-.95,3.88-2,7.94-3.29,12l-6.55,19.2h20Z"></path><path class="cls-2" d="M2682,545.93v39.32c0,14.78,6.55,21.07,15.51,21.07,9.77,0,16.13-6.51,16.13-21.07V545.93h8.6v38.7c0,20.37-10.72,28.71-25.09,28.71-13.54,0-23.78-7.71-23.78-28.34V545.93Z"></path><path class="cls-2" d="M2790.11,609.28a59.55,59.55,0,0,1-20.37,3.66c-10.06,0-18.36-2.56-24.8-8.78-5.71-5.48-9.26-14.3-9.22-24.61,0-19.79,13.64-34.28,35.85-34.28,7.68,0,13.75,1.68,16.6,3l-2.12,7a33.89,33.89,0,0,0-14.67-2.85c-16.09,0-26.63,10-26.63,26.63s10.1,26.74,25.61,26.74c5.6,0,9.4-.81,11.38-1.79V584.26h-13.43v-6.84h21.84v31.83Z"></path><path class="cls-2" d="M2814.14,545.93v39.32c0,14.78,6.55,21.07,15.51,21.07,9.77,0,16.13-6.51,16.13-21.07V545.93h8.6v38.7c0,20.37-10.72,28.71-25.09,28.71-13.54,0-23.78-7.71-23.78-28.34V545.93Z"></path><path class="cls-2" d="M2870.55,601.82a30,30,0,0,0,15.29,4.28c8.74,0,13.9-4.57,13.9-11.3,0-6.15-3.59-9.77-12.55-13.13-10.83-3.84-17.52-9.55-17.52-18.8,0-10.32,8.6-18,21.51-18,6.73,0,11.74,1.57,14.63,3.22l-2.38,7a25.35,25.35,0,0,0-12.51-3.14c-9.11,0-12.54,5.41-12.54,9.91,0,6.14,4,9.18,13.2,12.73,11.23,4.42,16.9,9.8,16.9,19.53s-7.5,19.13-23.19,19.13c-6.4,0-13.43-1.94-16.94-4.32l2.27-7.13Z"></path><path class="cls-2" d="M2935.29,553.17H2915.1v-7.24h49.12v7.24h-20.3v59.08h-8.59V553.17Z"></path><path class="cls-2" d="M1205.07,612c-3.11,1.57-9.44,3.15-17.52,3.15-18.69,0-32.7-11.82-32.7-33.58s14-34.79,34.6-34.79c8.19,0,13.5,1.72,15.73,2.93l-2.12,7a31.58,31.58,0,0,0-13.35-2.74c-15.59,0-25.86,9.95-25.86,27.36,0,16.24,9.36,26.59,25.42,26.59a35.14,35.14,0,0,0,14-2.7L1205,612Z"></path><path class="cls-2" d="M1229.28,547.8v27.76h32V547.8h8.59v66.31h-8.59V583h-32v31.13h-8.59V547.8Z"></path><path class="cls-2" d="M1298.34,547.8v66.31h-8.59V547.8Z"></path><path class="cls-2" d="M1318.17,548.71a81.45,81.45,0,0,1,15.65-1.43c8.6,0,14.09,1.47,18.22,4.83a14.1,14.1,0,0,1,5.56,11.74c0,6.4-4.28,12-11.23,14.52v.26c6.33,1.54,13.68,6.73,13.68,16.64a17.46,17.46,0,0,1-5.67,13.21c-4.57,4.28-12,6.22-22.9,6.22a118.61,118.61,0,0,1-13.31-.73V548.71Zm8.56,27.18h7.86c9,0,14.27-4.76,14.27-11.2,0-7.68-5.82-10.79-14.49-10.79a34.22,34.22,0,0,0-7.64.63v21.36Zm0,31.71a38,38,0,0,0,7.2.44c8.89,0,17.09-3.26,17.09-12.91,0-9-7.8-12.81-17.16-12.81h-7.13Z"></path><path class="cls-2" d="M1387.16,593.26l-6.84,20.85h-8.89L1394,547.8h10.31L1427,614.11h-9.14l-7.1-20.85h-23.55Zm21.76-6.69-6.58-19.1c-1.43-4.35-2.46-8.3-3.41-12.1h-.22c-1,3.87-2,7.93-3.29,12l-6.55,19.21Z"></path><path class="cls-2" d="M1435.69,626.26a142.83,142.83,0,0,0,5.89-23.56l9.62-1c-2.34,8.38-6.65,19.28-9.4,23.92l-6.11.63Z"></path><path class="cls-2" d="M1517.37,611.11a59.62,59.62,0,0,1-20.41,3.66c-10.06,0-18.36-2.56-24.8-8.78-5.7-5.49-9.25-14.3-9.21-24.62,0-19.78,13.64-34.27,35.84-34.27,7.68,0,13.76,1.68,16.61,3l-2.16,7a33.69,33.69,0,0,0-14.63-2.85c-16.1,0-26.63,10-26.63,26.63s10.1,26.74,25.6,26.74c5.6,0,9.41-.81,11.38-1.8V586.09h-13.42v-6.84h21.83v31.86Z"></path><path class="cls-2" d="M1535.26,548.71a89.89,89.89,0,0,1,16.46-1.43c9.11,0,15.07,1.72,19.2,5.45a16.66,16.66,0,0,1,5.2,12.62c0,8.71-5.56,14.52-12.51,16.9v.26c5.05,1.75,8.12,6.55,9.73,13.42,2.19,9.26,3.77,15.62,5.08,18.22h-8.89c-1.06-1.9-2.56-7.57-4.35-15.88-2-9.07-5.56-12.62-13.31-12.87h-8.12v28.75h-8.56v-65.4Zm8.56,30.18h8.74c9.18,0,15-5,15-12.59,0-8.63-6.22-12.36-15.25-12.36a35.8,35.8,0,0,0-8.49.77v24.21Z"></path><path class="cls-2" d="M1627.44,583h-25.72v24h28.75v7.13h-37.38V547.8h35.85v7.13h-27.25v21h25.71V583Z"></path><path class="cls-2" d="M1657.21,593.26l-6.84,20.85h-8.89l22.57-66.31h10.32L1697,614.11h-9.15l-7.09-20.85h-23.56Zm21.8-6.69-6.54-19.1c-1.43-4.35-2.46-8.3-3.41-12.1h-.22c-.95,3.87-2,7.93-3.29,12L1659,586.57h20Z"></path><path class="cls-2" d="M1724.22,555H1704V547.8h49.13V555h-20.3v59.07h-8.6V555Z"></path><path class="cls-2" d="M1799.68,583H1774v24h28.75v7.13h-37.35V547.8h35.85v7.13H1774v21h25.71V583Z"></path><path class="cls-2" d="M1818.7,548.71a90.09,90.09,0,0,1,16.47-1.43c9.1,0,15.07,1.72,19.2,5.45,3.29,2.89,5.19,7.43,5.19,12.62,0,8.71-5.56,14.52-12.51,16.9v.26c5,1.75,8.12,6.55,9.73,13.42,2.2,9.26,3.77,15.62,5.09,18.22H1853c-1.06-1.9-2.56-7.57-4.35-15.88-2-9.07-5.56-12.62-13.32-12.87h-8.12v28.75h-8.56v-65.4Zm8.56,30.18H1836c9.18,0,15-5,15-12.59,0-8.63-6.22-12.36-15.26-12.36a35.63,35.63,0,0,0-8.48.77v24.21Z"></path><path class="cls-2" d="M1915,555h-20.19V547.8h49.12V555h-20.3v59.07H1915V555Z"></path><path class="cls-2" d="M2012.86,580.28c0,22.75-13.86,34.89-30.76,34.89s-29.81-13.6-29.81-33.65,13-34.82,30.72-34.82,29.89,13.86,29.89,33.58Zm-51.54,1.06c0,14.19,7.72,26.88,21.22,26.88s21.25-12.51,21.25-27.58c0-13.2-6.88-27-21.14-27s-21.33,13.17-21.33,27.65Z"></path><path class="cls-2" d="M2028.81,547.8h8.56v32h.29c1.76-2.56,3.59-4.9,5.23-7.06l20.27-24.9h10.6l-24,28.2,25.89,38.11h-10.17l-21.8-32.52-6.36,7.28v25.28h-8.56V547.8Z"></path><path class="cls-2" d="M2101.89,614.11V586l-21-38.22h9.8l9.33,18.32c2.53,5,4.57,9,6.59,13.68h.18c1.83-4.35,4.09-8.7,6.66-13.75l9.58-18.29h9.69l-22.2,38.08V614h-8.63Z"></path><path class="cls-2" d="M2201.93,580.28c0,22.75-13.86,34.89-30.76,34.89s-29.81-13.6-29.81-33.65,13-34.82,30.69-34.82,29.88,13.86,29.88,33.58Zm-51.53,1.06c0,14.19,7.71,26.88,21.21,26.88s21.25-12.51,21.25-27.58c0-13.2-6.87-27-21.14-27s-21.32,13.17-21.32,27.65Z"></path><path class="cls-2" d="M1200.57,370.21V496.26h-47.3v-126ZM1177.05,314a23.12,23.12,0,0,1,16.61,6.77,21.61,21.61,0,0,1,7,16c0,6.59-2.2,12-6.62,16.17s-10.1,6.33-17,6.33-12.58-2.12-17-6.33a22.36,22.36,0,0,1,.4-32.15,23.19,23.19,0,0,1,16.61-6.77Z"></path><path class="cls-2" d="M1343.33,496.22H1296V425c0-7.24-3-10.86-9-10.86s-8.85,3.62-8.85,10.86v71.18H1231V426q0-24.63,16.31-41.51t39.94-16.87q27.06,0,43.35,19.61,12.78,15.31,12.76,42.61v66.43Z"></path><path class="cls-2" d="M1413,323.68V372h21.25v49.93H1413q0,15,4.75,20.74c3.15,3.81,9,5.67,17.38,5.67V498c-2.45.07-4.24.14-5.45.14a64.29,64.29,0,0,1-30.29-7.46,61.29,61.29,0,0,1-22.82-20.23q-10.86-16.29-10.87-43.23V323.68H1413Z"></path><path class="cls-2" d="M1584,440.84h-71.66a34.57,34.57,0,0,1-1.65-10,35.58,35.58,0,0,1,2.27-12.4h24q-2.52-14-15.8-14c-5.89,0-10.72,2.52-14.41,7.53s-5.56,11.45-5.56,19.28,1.79,14.78,5.38,19.83,8.26,7.57,14.08,7.57c4.72,0,9.29-2.34,13.64-7.1l26.92,32.37q-18.81,14.82-41.84,14.78-28,0-47.15-18.84t-19.09-46.63c0-18.55,6.43-34.06,19.27-46.79s28.64-19.09,47.33-19.09,33.66,6.22,46.09,18.65,18.66,27.73,18.66,45.95c0,1.86-.18,4.79-.51,8.85Z"></path><path class="cls-2" d="M1672.68,368.93v50.55a18.46,18.46,0,0,0-9-2.78q-12.88,0-12.91,19.71v59.81h-47.26V427.34q0-27.31,14.93-43.56t39.83-16.24a97.91,97.91,0,0,1,14.41,1.39Z"></path><path class="cls-2" d="M1863.7,496.22h-47.3V425c0-7.24-3-10.86-9-10.86s-8.85,3.62-8.85,10.86v71.18h-47.26V426q0-24.63,16.31-41.51t39.95-16.87q27,0,43.34,19.61,12.78,15.31,12.77,42.61v66.43Z"></path><path class="cls-2" d="M1951,367.54q26.79,0,46,19.27t19.16,46.2a63.53,63.53,0,0,1-19.38,46.53q-19.43,19.2-46.82,19.2a64.3,64.3,0,0,1-46.9-19.27q-19.47-19.26-19.46-46.46c0-18.1,6.48-34,19.46-46.56s29-18.91,48-18.91Zm-1.28,46.64a17.19,17.19,0,0,0-12.87,5.48,18.6,18.6,0,0,0-5.3,13.46,18.41,18.41,0,0,0,5.37,13.39,17.32,17.32,0,0,0,12.84,5.56,17.53,17.53,0,0,0,13-5.56,19.53,19.53,0,0,0,.07-26.85,17.39,17.39,0,0,0-13-5.48Z"></path><path class="cls-2" d="M2085.73,370.21V496.26h-47.3v-126ZM2062.21,314a23.08,23.08,0,0,1,16.6,6.77,22.33,22.33,0,0,1,.4,32.15q-6.63,6.31-17,6.33t-17-6.33c-4.43-4.21-6.62-9.62-6.62-16.17a21.46,21.46,0,0,1,7-16,23.15,23.15,0,0,1,16.61-6.77Z"></path><path class="cls-2" d="M2195.13,372v49.82q-10,0-13.72,3.73c-2.48,2.49-4.06,7.39-4.71,14.75q-3.3,36.54-28.32,51.57-13.27,7.85-37.67,7.83h-6.59v-50h2.16c7.57,0,13-1.57,16.24-4.76s5.12-8.7,5.64-16.6c.69-12.88,1.86-21.95,3.62-27.18s5.23-10.39,10.53-15.55c9.29-9,22.13-13.53,38.56-13.53h14.26Z"></path><path class="cls-2" d="M2337.05,440.84h-71.69a34.54,34.54,0,0,1-1.64-10,35.56,35.56,0,0,1,2.26-12.4h24q-2.52-14-15.8-14c-5.89,0-10.72,2.52-14.42,7.53s-5.56,11.45-5.56,19.28,1.8,14.78,5.38,19.83,8.27,7.57,14.08,7.57c4.72,0,9.26-2.34,13.65-7.1l26.92,32.37q-18.83,14.82-41.85,14.78-28.08,0-47.15-18.84t-19.09-46.63c0-18.55,6.44-34.06,19.28-46.79s28.64-19.09,47.33-19.09,33.65,6.22,46.09,18.65,18.65,27.73,18.65,45.95c0,1.86-.14,4.79-.51,8.85Z"></path><path class="cls-2" d="M2535.71,446.29v49.93H2424.22L2479.6,392.3l1.9-3.55a17.26,17.26,0,0,0,2.27-8.23c0-6.84-4-10.24-12-10.24a11.89,11.89,0,0,0-11.63,11.63c0,3.55,1.5,6.73,4.54,9.62L2442.55,431a60.5,60.5,0,0,1-21.37-21.87,60.9,60.9,0,0,1,10.1-72,57.5,57.5,0,0,1,42.47-17.77c16.6,0,30.87,5.85,42.54,17.56s17.52,26,17.52,42.72a57.44,57.44,0,0,1-6.44,26.81l-20.48,39.83h28.82Z"></path><path class="cls-2" d="M2560.25,428.84V390.91q0-33.14,16.5-52.34t45-19.21q28.47,0,45,19.21t16.57,52.34v37.93q0,33.15-16.57,52.42t-45,19.28q-28.42,0-45-19.28T2560.25,428.84Zm49.17-48V439q0,15.79,12.25,15.8c8.16,0,12.4-5.27,12.4-15.8V380.82q0-15.81-12.4-15.81C2613.4,365,2609.42,370.28,2609.42,380.82Z"></path><path class="cls-2" d="M2830,446.29v49.93H2718.53l55.38-103.92,1.9-3.55a17.26,17.26,0,0,0,2.27-8.23c0-6.84-4-10.24-12-10.24a11.87,11.87,0,0,0-11.63,11.63c0,3.55,1.5,6.73,4.53,9.62L2736.85,431a60.55,60.55,0,0,1-21.36-21.87,60.9,60.9,0,0,1,10.1-72,57.48,57.48,0,0,1,42.47-17.77c16.6,0,30.87,5.85,42.54,17.56s17.52,26,17.52,42.72a57.44,57.44,0,0,1-6.44,26.81l-20.48,39.83H2830Z"></path><path class="cls-2" d="M2870.33,323.68h91.41L2933.54,390q15.2,10.26,22.05,22.43c4.57,8.12,6.88,17.77,6.88,28.89q0,24.91-18.33,42T2899,500.5a81.87,81.87,0,0,1-29.34-5.56v-48.8c7.32,4.54,13.68,6.84,19.09,6.84a19.75,19.75,0,0,0,14.85-6.32,21.94,21.94,0,0,0,6-15.7,20,20,0,0,0-9-17.11c-6-4.25-14-6.41-24-6.41l12.77-34h-19.1V323.61Z"></path><path class="cls-2" d="M1703.85,422.81a23.15,23.15,0,0,1,16.61,6.76,21.47,21.47,0,0,1,7,16q0,9.87-6.62,16.17c-4.43,4.2-10.1,6.32-17,6.32s-12.58-2.12-17-6.32-6.62-9.62-6.62-16.17a21.47,21.47,0,0,1,7-16,23.22,23.22,0,0,1,16.61-6.76Z"></path></g></g></g></svg>